<?xml version="1.0" standalone="no"?>
<!DOCTYPE svg PUBLIC "-//W3C//DTD SVG 20010904//EN"
 "http://www.w3.org/TR/2001/REC-SVG-20010904/DTD/svg10.dtd">
<svg version="1.0" xmlns="http://www.w3.org/2000/svg"
 width="1000.000000pt" height="1000.000000pt" viewBox="0 0 1000.000000 1000.000000"
 preserveAspectRatio="xMidYMid meet">
<metadata>
Created by potrace 1.11, written by Peter Selinger 2001-2013
</metadata>
<g transform="translate(0.000000,1000.000000) scale(0.100000,-0.100000)"
fill="#000000" stroke="none">
<path d="M4800 9643 c-581 -39 -1070 -169 -1540 -409 -987 -502 -1724 -1422
-1989 -2479 -218 -871 -131 -1777 248 -2580 28 -59 51 -112 51 -116 0 -5 -205
-9 -455 -9 l-455 0 297 -595 298 -595 681 0 681 0 519 -675 c355 -462 524
-673 534 -670 8 2 47 7 85 10 l70 7 219 -281 c120 -155 223 -281 228 -281 4 0
36 11 70 25 34 14 62 25 63 25 2 0 48 -54 104 -120 l102 -120 51 26 50 25 22
-20 c11 -11 102 -117 201 -235 99 -118 183 -215 187 -215 4 -1 143 179 310
398 l303 399 74 -1 75 -2 84 120 c93 135 77 126 217 112 l70 -8 191 288 191
288 98 35 c89 32 101 39 136 85 22 28 163 214 315 415 l275 365 581 5 582 5
352 585 353 585 -450 3 c-247 1 -449 6 -449 11 0 4 24 59 54 122 488 1038 483
2264 -14 3295 -224 465 -520 859 -907 1203 -239 213 -249 221 -445 352 -191
129 -540 302 -793 394 -481 174 -1057 261 -1525 228z m645 -382 c516 -69 990
-239 1381 -496 335 -220 574 -416 765 -631 329 -367 565 -773 719 -1234 210
-630 235 -1298 74 -1942 -68 -269 -182 -566 -306 -795 l-61 -113 -363 0 c-200
0 -364 2 -364 5 0 3 126 139 280 301 154 162 280 299 280 304 0 6 -44 8 -117
3 l-116 -6 68 99 c38 54 104 149 147 211 43 62 78 115 78 118 0 3 -56 5 -124
5 l-125 0 115 236 c63 130 114 238 114 240 0 2 -209 5 -464 6 l-464 3 119 149
c65 82 119 155 119 163 0 8 -11 60 -25 115 -15 55 -25 106 -23 113 2 6 28 33
58 60 46 40 71 77 152 223 l97 175 -81 111 c-44 61 -84 115 -89 120 -5 5 -47
-14 -101 -47 -74 -44 -105 -57 -153 -63 -71 -8 -74 -14 50 116 124 131 376
399 429 458 l49 52 -364 0 -364 -1 -219 -199 -219 -200 -78 0 c-65 0 -80 -3
-91 -19 -7 -10 -54 -63 -104 -117 -50 -54 -129 -141 -175 -191 -77 -86 -87
-93 -121 -93 -35 0 -43 -7 -125 -100 l-88 -100 -101 0 -101 0 -54 -57 c-30
-32 -99 -106 -155 -165 l-101 -108 -105 108 c-58 59 -129 133 -158 165 l-53
57 -101 0 -101 0 -88 100 c-82 93 -90 100 -125 100 -34 0 -44 7 -121 93 -46
50 -125 137 -175 191 -50 54 -97 107 -104 117 -11 16 -26 19 -91 19 l-78 0
-219 200 -219 199 -365 1 -364 0 40 -42 c161 -170 522 -557 534 -572 14 -18
13 -19 -45 -12 -48 6 -78 19 -149 62 -48 30 -91 54 -95 54 -4 0 -46 -54 -94
-119 l-86 -119 95 -171 c89 -161 128 -213 202 -267 15 -11 14 -21 -11 -126
-15 -62 -27 -118 -27 -124 0 -6 54 -78 119 -160 l119 -149 -584 -3 c-381 -1
-584 -6 -584 -12 0 -6 50 -109 110 -230 60 -121 110 -224 110 -230 0 -6 -46
-10 -120 -10 -66 0 -120 -2 -120 -5 0 -3 63 -100 140 -215 77 -115 140 -212
140 -215 0 -3 -50 -5 -111 -5 l-112 0 44 -50 c24 -27 154 -162 288 -300 l243
-250 -349 0 -349 0 -51 93 c-303 554 -454 1227 -415 1851 14 209 46 438 86
606 212 894 770 1671 1550 2159 447 280 972 461 1481 511 61 5 128 12 150 14
104 10 517 -4 660 -23z m2204 -3847 c2 -2 -46 -106 -107 -231 -60 -126 -108
-230 -105 -233 2 -3 47 -7 99 -10 l95 -5 -141 -210 -142 -210 81 -5 81 -5 -36
-30 c-20 -16 -59 -56 -85 -88 -27 -32 -49 -55 -49 -51 0 3 -8 -3 -18 -14 -44
-53 -139 -155 -269 -290 l-143 -147 25 72 c14 40 25 77 25 83 0 7 -641 10
-1975 10 -1660 0 -1975 -2 -1975 -14 0 -7 14 -46 30 -86 17 -40 30 -74 30 -76
0 -2 -48 46 -107 108 -60 61 -174 179 -254 262 -81 83 -168 174 -194 201 l-47
50 66 3 c55 2 66 6 66 20 0 16 -44 90 -60 102 -4 3 -55 77 -114 165 l-106 160
105 3 c58 1 105 5 105 8 0 2 -14 33 -31 67 -18 34 -69 140 -115 236 l-84 174
2672 -7 c1470 -4 2675 -10 2677 -12z m-4203 -1722 c51 -26 78 -56 106 -117 33
-73 33 -227 -1 -303 -57 -127 -204 -177 -330 -112 -83 42 -124 129 -124 265 0
160 53 247 173 286 40 13 133 3 176 -19z m550 0 c51 -26 78 -56 106 -117 33
-73 33 -227 -1 -303 -57 -127 -204 -177 -330 -112 -83 42 -124 129 -124 265 0
160 53 247 173 286 40 13 133 3 176 -19z m2634 17 c78 -18 128 -69 145 -146
l7 -33 -56 0 c-54 0 -56 1 -70 34 -39 93 -162 87 -202 -10 -19 -45 -19 -214 0
-259 27 -63 114 -94 181 -63 22 10 25 17 25 65 l0 53 -50 0 -50 0 0 45 0 45
110 0 110 0 0 -120 0 -119 -43 -26 c-98 -57 -231 -57 -314 -2 -73 49 -97 106
-101 237 -3 88 0 114 18 162 44 117 153 169 290 137z m-3859 -186 l114 -187 3
187 2 187 55 0 55 0 0 -285 0 -285 -57 0 -58 0 -110 182 -110 182 -3 -182 -2
-182 -60 0 -60 0 0 285 0 285 59 0 59 0 113 -187z m1764 162 c52 -26 85 -76
85 -129 0 -43 -29 -102 -55 -112 -22 -9 -18 -19 10 -32 60 -27 75 -154 24
-208 -48 -51 -73 -58 -236 -62 l-153 -4 0 287 0 287 143 -4 c116 -3 149 -7
182 -23z m505 -215 l0 -240 125 0 125 0 0 -45 0 -45 -185 0 -185 0 0 285 0
285 60 0 60 0 0 -240z m690 195 l0 -45 -130 0 -130 0 0 -70 0 -70 110 0 110 0
0 -45 0 -45 -110 0 -110 0 0 -80 0 -80 130 0 130 0 0 -45 0 -45 -190 0 -190 0
0 285 0 285 190 0 190 0 0 -45z m442 -220 c54 -143 101 -270 104 -282 6 -22 4
-23 -54 -23 l-60 0 -19 58 -20 57 -105 3 -105 3 -16 -61 -17 -60 -64 0 -63 0
106 285 106 286 55 -3 54 -3 98 -260z m820 44 l3 -221 28 -24 c45 -38 143 -25
161 21 3 9 6 113 6 231 l0 214 60 0 60 0 0 -212 c0 -185 -3 -218 -19 -253 -24
-55 -69 -90 -131 -105 -105 -25 -215 11 -257 85 -22 38 -23 50 -23 263 l0 222
54 0 55 0 3 -221z m798 176 l0 -45 -130 0 -130 0 0 -70 0 -70 110 0 110 0 0
-45 0 -45 -110 0 -110 0 0 -80 0 -80 130 0 130 0 0 -45 0 -45 -190 0 -190 0 0
285 0 285 190 0 190 0 0 -45z m-3672 -1058 l187 -246 55 -1 c62 0 39 21 215
-203 49 -61 74 -86 85 -82 53 21 64 17 124 -44 58 -58 60 -59 86 -46 27 14 28
13 104 -76 43 -49 82 -89 86 -89 5 0 20 15 33 33 13 17 50 67 83 111 32 43 74
98 92 122 30 40 36 44 77 44 l44 0 52 81 53 82 60 -6 61 -6 80 126 c44 69 85
131 92 137 6 7 36 20 66 30 58 18 62 22 220 229 l37 49 441 0 c242 0 443 -3
446 -5 3 -3 -22 -41 -54 -84 -32 -43 -80 -107 -105 -143 -25 -36 -85 -114
-133 -175 -94 -120 -115 -133 -201 -134 -39 -1 -55 -6 -71 -24 -11 -12 -93
-130 -181 -263 l-161 -241 -66 3 c-134 6 -136 5 -234 -136 l-87 -125 -72 -3
c-39 -2 -72 -7 -72 -11 0 -4 -34 -50 -75 -102 -41 -52 -131 -166 -200 -254
-68 -88 -137 -175 -152 -192 l-28 -33 -143 170 c-79 94 -150 170 -158 170 -8
0 -32 -9 -54 -20 -22 -11 -41 -20 -44 -20 -2 0 -46 50 -97 110 -51 61 -93 110
-94 110 -1 0 -29 -11 -63 -25 -34 -14 -63 -25 -65 -25 -3 0 -94 115 -203 256
l-199 255 -70 -6 c-38 -3 -77 -8 -85 -10 -13 -4 -154 173 -682 863 l-67 87 32
5 c18 3 209 4 425 4 l392 -2 188 -245z"/>
<path d="M5017 9139 c-15 -12 -39 -42 -52 -68 -13 -25 -40 -63 -59 -85 -46
-51 -62 -93 -37 -101 10 -3 37 -26 59 -50 23 -25 46 -45 51 -45 7 0 10 -19 9
-45 -1 -32 4 -51 18 -66 27 -30 34 -195 9 -232 -10 -17 -13 -27 -6 -32 16 -9
13 -72 -3 -98 -8 -12 -17 -41 -21 -64 -4 -23 -17 -72 -30 -110 -13 -37 -20
-72 -16 -78 5 -5 11 -27 15 -47 7 -40 -7 -51 -32 -26 -18 18 -22 7 -13 -35 9
-36 7 -38 -53 -97 -62 -62 -135 -98 -144 -72 -2 7 -8 12 -13 12 -12 0 -11 -41
0 -59 24 -38 -23 -68 -73 -47 -66 28 -76 98 -23 168 38 49 70 60 87 28 16 -30
30 -15 30 33 0 26 -8 54 -23 76 -12 20 -27 45 -33 56 -13 23 -63 32 -92 16
-27 -14 -34 -60 -14 -93 15 -26 14 -27 -33 -80 -26 -29 -56 -66 -66 -83 -10
-16 -26 -30 -36 -31 -10 0 -27 -1 -39 -2 -12 -1 -54 -28 -93 -61 -40 -32 -90
-67 -111 -77 -22 -11 -40 -22 -40 -25 0 -4 15 -12 33 -20 17 -7 67 -39 110
-72 56 -42 90 -61 118 -64 28 -4 45 -13 56 -30 15 -22 15 -26 -6 -53 -23 -32
-27 -70 -10 -103 17 -31 28 -37 77 -37 61 0 82 14 82 54 0 24 8 40 30 59 30
27 35 42 24 71 -4 11 -14 13 -34 10 -32 -7 -50 15 -50 63 0 39 17 53 60 53 29
0 48 -10 91 -46 60 -51 72 -74 40 -74 -30 0 -28 -43 4 -68 19 -15 25 -29 25
-60 0 -34 -6 -45 -50 -86 -53 -50 -64 -53 -94 -31 -32 24 -52 18 -69 -22 -26
-62 -31 -152 -10 -193 21 -41 63 -55 63 -21 0 30 11 26 43 -13 l27 -35 0 -260
0 -261 63 0 62 0 130 -130 c77 -78 138 -130 149 -130 17 0 175 151 243 233 19
23 31 27 73 27 l50 0 0 269 c0 230 2 270 15 275 8 3 20 17 27 31 14 30 28 33
28 5 0 -11 6 -23 14 -26 45 -17 90 69 68 129 -6 18 -9 41 -6 52 6 27 -31 85
-55 85 -10 0 -24 -7 -31 -15 -18 -21 -41 -19 -80 10 -76 56 -91 123 -39 174
34 34 34 54 1 59 -32 5 -27 25 13 61 77 67 133 77 168 29 18 -24 18 -30 7 -58
-12 -28 -17 -31 -49 -28 -34 3 -36 1 -39 -28 -2 -24 3 -36 21 -51 13 -10 27
-34 31 -55 9 -47 29 -63 78 -61 58 3 77 11 93 43 22 42 18 73 -10 100 -23 21
-23 24 -9 51 10 20 22 29 39 29 39 0 72 17 136 70 34 28 79 58 100 67 22 8 39
18 39 22 0 7 -65 41 -78 41 -4 -1 3 -9 15 -19 l23 -19 -26 -17 c-33 -22 -50
-8 -38 32 4 15 8 31 8 35 1 11 -126 108 -148 113 -12 2 -32 6 -46 7 -15 2 -26
11 -30 25 -3 13 -28 49 -57 82 -43 48 -50 61 -39 70 23 19 25 48 5 80 -15 25
-26 31 -52 31 -41 0 -57 -12 -91 -73 -24 -42 -27 -56 -21 -95 l7 -46 17 23
c13 17 24 22 39 16 25 -7 66 -57 81 -98 26 -67 -58 -149 -115 -112 -26 16 -30
30 -14 40 6 3 10 20 10 38 0 24 -3 28 -12 19 -28 -28 -75 -5 -166 82 -42 40
-43 42 -36 91 l6 50 -21 -19 c-16 -15 -24 -17 -33 -8 -8 8 -8 15 1 26 7 8 10
20 7 25 -4 6 -1 19 6 31 10 16 10 24 0 40 -6 11 -12 28 -12 38 0 9 -7 27 -15
39 -8 12 -13 27 -10 35 3 7 -4 38 -15 68 -22 60 -26 115 -9 125 7 5 5 15 -5
31 -12 17 -16 50 -16 122 0 87 3 101 20 117 16 15 20 29 18 64 -3 41 0 46 19
49 12 2 25 12 28 22 6 20 54 65 77 72 17 6 -7 63 -37 86 -12 10 -32 37 -44 60
-12 24 -38 61 -58 82 -32 36 -40 40 -82 40 -31 -1 -55 -8 -74 -21z m123 -75
c0 -28 -33 -56 -61 -52 -13 2 -30 15 -38 30 -14 24 -13 29 13 69 l29 43 28
-35 c16 -19 29 -43 29 -55z m-32 -126 c13 -18 25 -78 15 -79 -78 -8 -91 3 -69
55 15 37 36 46 54 24z m-481 -914 c3 -8 1 -20 -5 -26 -15 -15 -43 8 -35 28 7
19 32 18 40 -2z m953 -3 c0 -11 -5 -23 -11 -27 -15 -9 -33 12 -26 30 9 23 37
20 37 -3z m-588 -326 c18 -15 42 -25 61 -25 18 0 41 -3 52 -6 14 -3 34 5 59
25 38 30 41 31 147 31 60 0 109 -4 109 -9 0 -5 -37 -11 -82 -13 -82 -5 -82 -5
-119 -47 -31 -35 -42 -41 -66 -37 -15 2 -62 5 -103 5 l-75 1 -27 39 c-27 38
-29 38 -108 45 -44 4 -83 12 -86 18 -5 8 24 9 101 4 95 -6 111 -10 137 -31z
m-189 -22 c-7 -2 -19 -2 -25 0 -7 3 -2 5 12 5 14 0 19 -2 13 -5z m117 -15 c19
-21 20 -23 4 -27 -10 -2 -24 5 -31 15 -28 38 -6 47 27 12z m370 4 c0 -5 -9
-17 -19 -26 -22 -20 -40 -4 -21 19 13 16 40 20 40 7z m103 1 c-7 -2 -21 -2
-30 0 -10 3 -4 5 12 5 17 0 24 -2 18 -5z m-1143 -38 c0 -33 -15 -39 -45 -19
l-26 17 27 18 c33 21 44 17 44 -16z m583 18 c-7 -2 -21 -2 -30 0 -10 3 -4 5
12 5 17 0 24 -2 18 -5z m527 -3 c20 -6 21 -8 5 -8 -11 0 -29 3 -40 8 -25 11 1
11 35 0z m-500 -30 c-19 -12 -40 -13 -40 -1 0 9 40 20 50 13 2 -2 -2 -7 -10
-12z m470 0 c24 -15 7 -19 -20 -5 -15 8 -19 14 -10 14 8 1 22 -3 30 -9z m-426
-25 c-22 -16 -44 -19 -44 -6 0 11 18 19 44 20 20 1 20 1 0 -14z m390 0 c15
-11 16 -15 5 -15 -8 0 -24 7 -35 15 -14 11 -15 14 -4 14 8 0 24 -6 34 -14z
m-349 -15 c-10 -11 -25 -20 -34 -20 -10 0 -5 8 14 20 38 25 43 25 20 0z m55
-10 c-34 -28 -50 -36 -50 -25 0 11 55 54 70 55 8 0 -1 -13 -20 -30z m195 0
c20 -21 24 -30 14 -30 -8 0 -25 14 -37 30 -13 17 -19 30 -14 30 4 0 21 -13 37
-30z m45 10 c14 -10 23 -21 20 -23 -3 -3 -18 6 -33 19 -33 28 -23 32 13 4z
m-690 -220 c25 -25 25 -32 2 -60 -14 -18 -25 -21 -45 -16 -35 8 -46 49 -22 76
23 25 40 25 65 0z m1143 -4 c4 -6 6 -22 5 -36 -4 -31 -49 -50 -72 -30 -22 17
-20 66 2 79 19 11 53 5 65 -13z m-565 -73 l3 -43 -40 0 -41 0 0 46 0 45 38 -3
c36 -3 37 -4 40 -45z m0 -130 c-3 -48 -3 -48 -40 -51 l-38 -3 0 50 0 51 41 0
40 0 -3 -47z m-3 -133 c0 -45 0 -45 -37 -48 l-38 -3 0 51 0 51 38 -3 c37 -3
37 -3 37 -48z m0 -130 c0 -45 0 -45 -37 -48 l-38 -3 0 51 0 51 38 -3 c37 -3
37 -3 37 -48z m1 -93 c0 -1 -1 -21 -4 -44 -4 -41 -5 -43 -38 -43 l-34 0 0 51
0 51 38 -7 c20 -4 37 -8 38 -8z m-6 -172 c0 -45 0 -45 -35 -45 -35 0 -35 0
-35 45 0 45 0 45 35 45 35 0 35 0 35 -45z m0 -125 c0 -39 -1 -40 -35 -40 -34
0 -35 1 -35 40 0 39 1 40 35 40 34 0 35 -1 35 -40z"/>
<path d="M2853 5268 c44 -113 187 -487 187 -491 0 -4 -45 -7 -99 -7 l-100 0
15 -37 c9 -20 47 -103 85 -186 38 -82 69 -151 69 -153 0 -2 -29 -4 -65 -4 -46
0 -65 -4 -65 -12 1 -7 16 -49 34 -93 l32 -80 2036 -3 2035 -2 42 91 c24 50 40
93 37 96 -3 3 -37 5 -76 4 -38 -1 -70 1 -70 3 0 3 38 88 84 188 l84 183 -99 3
c-54 1 -99 6 -99 10 0 6 145 385 187 490 4 9 -425 12 -2127 12 -1702 0 -2131
-3 -2127 -12z m1017 -243 l0 -105 -210 0 -210 0 0 -55 0 -55 210 0 210 0 0
-245 0 -245 -340 0 -340 0 0 100 0 100 220 0 221 0 -3 58 -3 57 -217 3 -218 2
0 245 0 245 340 0 340 0 0 -105z m476 -20 c49 -69 92 -125 96 -125 4 0 46 56
94 125 l87 125 118 0 119 0 0 -405 0 -405 -125 0 -125 0 0 130 c0 72 -4 130
-8 130 -5 0 -44 -49 -88 -110 -43 -60 -82 -109 -86 -110 -4 0 -42 49 -85 110
-43 60 -81 110 -85 110 -5 0 -8 -58 -8 -130 l0 -130 -130 0 -130 0 0 405 0
405 133 0 133 0 90 -125z m874 -280 l0 -405 -120 0 -120 0 0 405 0 405 120 0
120 0 0 -405z m770 300 l0 -105 -90 0 -90 0 0 -300 0 -300 -135 0 -135 0 0
305 0 305 -105 0 -105 0 0 100 0 100 330 0 330 0 0 -105z m780 0 l0 -105 -205
0 -205 0 0 -65 0 -65 205 0 205 0 0 -75 0 -75 -205 0 -205 0 0 -60 0 -60 205
0 205 0 0 -100 0 -100 -328 0 -329 0 -6 257 c-9 328 -9 538 0 546 3 4 154 7
335 7 l328 0 0 -105z"/>
<path d="M3279 3615 c-46 -25 -64 -78 -64 -190 0 -75 5 -108 17 -132 39 -70
103 -91 165 -53 25 15 36 32 49 76 21 72 15 192 -11 247 -29 61 -97 84 -156
52z"/>
<path d="M3829 3615 c-46 -25 -64 -78 -64 -190 0 -75 5 -108 17 -132 39 -70
103 -91 165 -53 25 15 36 32 49 76 21 72 15 192 -11 247 -29 61 -97 84 -156
52z"/>
<path d="M4330 3545 l0 -75 65 0 c80 0 105 19 105 79 0 54 -25 71 -107 71
l-63 0 0 -75z"/>
<path d="M4330 3305 l0 -75 69 0 c86 0 115 19 115 75 0 56 -29 75 -115 75
l-69 0 0 -75z"/>
<path d="M5986 3467 c-16 -51 -31 -98 -33 -104 -3 -10 14 -13 67 -13 54 0 71
3 68 13 -3 6 -18 50 -33 97 -15 47 -30 88 -34 92 -3 4 -19 -35 -35 -85z"/>
</g>
</svg>
