<?xml version="1.0" standalone="no"?>
<!DOCTYPE svg PUBLIC "-//W3C//DTD SVG 20010904//EN"
 "http://www.w3.org/TR/2001/REC-SVG-20010904/DTD/svg10.dtd">
<svg version="1.0" xmlns="http://www.w3.org/2000/svg"
 width="1024.000000pt" height="1024.000000pt" viewBox="0 0 1024.000000 1024.000000"
 preserveAspectRatio="xMidYMid meet">
<metadata>
Created by potrace 1.14, written by Peter Selinger 2001-2017
</metadata>
<g transform="translate(0.000000,1024.000000) scale(0.100000,-0.100000)"
fill="#000000" stroke="none">
<path d="M4920 9920 c-1222 -78 -2318 -714 -2994 -1739 -331 -501 -524 -1023
-608 -1641 -30 -224 -33 -710 -5 -925 37 -284 104 -571 192 -824 38 -108 138
-349 181 -432 13 -27 24 -51 24 -54 0 -3 -205 -5 -456 -5 -417 0 -456 -1 -450
-16 8 -21 756 -1346 765 -1357 4 -4 275 -8 602 -10 l594 -2 520 -677 c348
-454 525 -676 535 -673 8 2 47 7 86 10 l71 7 213 -274 c117 -150 218 -278 224
-285 8 -9 27 -5 80 17 57 24 71 27 80 16 80 -101 191 -226 200 -226 6 0 31 12
56 26 43 25 45 25 60 7 8 -10 100 -119 204 -242 150 -176 192 -220 200 -209
390 518 610 798 624 794 10 -3 41 -6 71 -7 l55 -3 89 128 90 128 36 -5 c20 -3
64 -9 98 -13 l61 -6 194 288 193 289 102 40 102 40 314 415 313 415 489 2
c268 1 491 4 495 5 8 3 879 1335 887 1355 4 11 -84 13 -451 13 l-456 0 46 91
c177 353 301 781 361 1244 25 196 25 670 0 875 -97 792 -404 1489 -917 2084
-110 128 -367 378 -490 478 -593 478 -1290 766 -2039 843 -182 18 -475 25
-641 15z m735 -389 c301 -47 544 -111 790 -208 1113 -440 1929 -1417 2159
-2583 78 -395 86 -815 25 -1220 -55 -361 -209 -817 -382 -1130 l-53 -95 -373
-3 -374 -2 54 57 c29 32 160 170 289 306 129 137 236 252 238 255 1 4 -51 5
-115 2 -65 -3 -119 -5 -121 -4 -1 1 64 97 146 215 l148 214 -123 3 c-68 1
-123 6 -123 11 0 5 49 109 110 232 60 123 110 227 110 231 0 4 -254 9 -565 10
l-565 3 123 154 124 154 -29 121 -29 121 60 53 c52 46 74 79 157 228 l97 175
-34 47 c-18 26 -58 81 -89 123 l-55 77 -95 -58 c-77 -47 -106 -59 -155 -65
l-60 -7 25 28 c14 16 135 145 269 289 135 143 258 275 275 293 l30 32 -366 0
-365 0 -224 -205 -224 -204 -77 -1 -77 0 -191 -210 c-183 -201 -193 -210 -228
-210 -35 0 -44 -7 -126 -100 -80 -91 -91 -100 -123 -100 -32 0 -34 2 -22 17
11 12 15 71 19 242 l5 226 35 42 35 42 14 -29 c18 -37 35 -38 67 -3 24 26 25
31 19 108 -8 99 -20 149 -41 165 -12 11 -17 10 -30 -9 -53 -75 -178 -14 -200
99 -6 28 -2 36 30 66 41 38 44 50 16 59 -27 9 -26 49 3 75 37 35 109 80 128
80 10 0 30 -11 45 -24 22 -18 28 -32 27 -59 -1 -49 -8 -57 -54 -57 -49 0 -50
-13 -9 -90 17 -30 30 -63 30 -72 0 -24 31 -38 82 -38 54 0 63 7 83 53 20 48
19 50 -11 87 l-27 31 20 27 c11 15 45 36 76 48 65 25 212 130 220 157 4 13
-11 28 -56 59 -34 23 -78 55 -98 71 -22 17 -54 31 -78 34 -34 5 -45 12 -58 37
-9 17 -43 59 -75 92 -37 39 -55 65 -48 69 20 12 31 55 19 76 -13 25 -65 48
-90 42 -20 -6 -89 -123 -89 -151 0 -9 5 -24 10 -32 7 -12 12 -12 22 -2 21 21
45 14 77 -23 55 -63 64 -158 18 -190 -54 -38 -125 -4 -112 54 6 28 5 30 -24
29 -37 -1 -68 19 -143 91 -38 37 -60 68 -64 89 -4 18 -12 32 -18 32 -28 0 -34
21 -20 73 16 61 11 101 -25 177 -26 54 -26 58 -25 275 2 327 -1 314 79 395 58
58 65 70 59 94 -3 14 -17 35 -31 45 -13 11 -38 47 -54 80 -34 69 -92 122 -111
103 -17 -17 -48 -15 -48 3 0 8 -4 15 -8 15 -17 0 -81 -78 -116 -142 -20 -37
-48 -81 -62 -98 l-26 -31 63 -67 c34 -37 69 -72 76 -78 9 -8 11 -19 5 -35 -6
-16 -5 -34 4 -54 30 -68 4 -447 -37 -539 -17 -40 -20 -59 -14 -100 14 -96 12
-111 -12 -114 -19 -3 -23 -10 -23 -36 0 -28 -10 -40 -85 -101 -54 -45 -97 -72
-117 -75 -30 -5 -33 -8 -30 -39 3 -45 -12 -61 -59 -61 -82 0 -104 79 -51 181
25 47 32 54 58 53 16 0 36 -2 44 -5 11 -3 16 6 18 33 3 30 -1 40 -22 54 -16
10 -26 26 -26 40 0 31 -41 58 -75 50 -14 -4 -32 -18 -41 -32 -16 -23 -16 -28
-1 -58 l15 -33 -40 -39 c-22 -22 -55 -62 -74 -90 -28 -44 -39 -52 -73 -58 -25
-4 -57 -21 -88 -46 -26 -22 -67 -55 -90 -72 -24 -18 -43 -38 -43 -45 0 -7 16
-19 35 -27 19 -8 55 -36 80 -62 32 -33 63 -53 98 -64 39 -13 57 -25 71 -49 18
-32 18 -32 -3 -55 -25 -26 -27 -56 -6 -96 18 -35 43 -50 85 -50 40 0 70 16 70
38 0 9 14 40 30 67 40 68 39 81 -9 89 -41 6 -51 19 -51 67 0 34 39 79 67 79
24 0 149 -84 162 -109 11 -20 3 -32 -32 -44 -17 -6 -17 -8 -1 -32 9 -14 25
-30 35 -36 27 -14 25 -77 -4 -120 -28 -41 -82 -79 -113 -79 -24 0 -56 25 -67
51 -4 11 -12 7 -30 -12 -19 -21 -26 -45 -35 -120 -10 -84 -10 -96 6 -123 13
-23 26 -31 50 -32 26 -1 32 2 32 20 0 11 4 27 9 35 8 13 12 13 26 1 40 -34 47
-66 40 -203 -8 -173 6 -343 32 -362 17 -14 17 -14 -4 -15 -15 0 -48 30 -109
100 -82 93 -91 100 -126 100 -36 0 -45 8 -229 210 l-191 210 -77 0 -76 1 -225
204 -224 205 -365 0 -365 0 25 -27 c14 -16 137 -147 274 -293 137 -146 260
-278 274 -294 l26 -28 -60 7 c-48 5 -78 18 -152 62 -50 30 -96 52 -101 49 -9
-5 -143 -187 -165 -223 -6 -9 23 -71 83 -181 78 -143 100 -176 156 -228 l65
-60 -29 -121 -28 -120 123 -154 123 -154 -590 -3 c-325 -1 -590 -4 -590 -7 0
-3 52 -109 115 -235 63 -126 115 -232 115 -235 0 -2 -56 -6 -125 -7 l-125 -3
145 -217 145 -217 -114 -3 -115 -3 290 -300 289 -300 -347 -3 c-269 -2 -350 1
-359 10 -7 7 -40 65 -73 128 -344 658 -472 1420 -361 2153 56 365 160 693 326
1027 186 373 402 670 695 955 575 561 1290 895 2104 985 44 4 220 7 390 5 257
-2 334 -6 450 -24z m-470 -347 c17 -41 13 -51 -21 -65 -24 -9 -94 11 -94 26 0
4 12 22 26 41 36 47 69 46 89 -2z m-521 -946 c15 -24 -13 -53 -43 -43 -21 6
-29 43 -14 59 12 12 45 2 57 -16z m1014 -10 c2 -19 -2 -28 -18 -33 -37 -12
-64 27 -38 53 21 21 53 10 56 -20z m-743 -318 c90 0 96 -1 128 -30 49 -43 115
-43 164 1 l35 31 109 -3 c80 -3 109 -7 109 -16 0 -10 -22 -13 -84 -13 l-83 0
-28 -40 -28 -40 -107 0 -107 0 -28 39 c-25 38 -30 40 -93 46 -37 3 -76 7 -86
8 -11 1 -22 8 -24 16 -3 10 0 12 12 8 10 -4 60 -7 111 -7z m-55 -50 c-20 -5
-39 -5 -44 1 -6 5 7 9 35 8 l44 -1 -35 -8z m115 -20 c15 -16 14 -18 -2 -24
-11 -5 -23 0 -35 16 -10 13 -18 26 -18 30 0 11 38 -4 55 -22z m349 -5 c-14
-22 -54 -36 -54 -18 0 14 34 43 52 43 17 0 18 -1 2 -25z m99 18 c-13 -2 -33
-2 -45 0 -13 2 -3 4 22 4 25 0 35 -2 23 -4z m-541 -26 c-24 -7 -36 -7 -44 1
-9 9 -1 12 33 11 l44 -1 -33 -11z m521 3 c10 0 16 -4 12 -9 -3 -6 -18 -6 -36
-1 -38 11 -55 26 -19 17 14 -4 33 -7 43 -7z m-473 -18 c0 -15 -52 -34 -63 -23
-6 6 2 13 24 19 19 6 35 11 37 11 1 1 2 -3 2 -7z m444 -11 c13 -5 16 -10 8
-15 -6 -4 -24 0 -39 8 -23 13 -24 15 -8 15 11 0 29 -4 39 -8z m-419 -26 c-30
-25 -45 -28 -48 -10 -1 6 14 15 33 22 48 16 49 16 15 -12z m38 -16 c-18 -18
-36 -28 -43 -24 -7 5 0 15 22 31 47 33 58 29 21 -7z m346 17 c20 -11 21 -14 7
-19 -14 -6 -66 17 -66 29 0 9 36 2 59 -10z m-289 -31 c-32 -33 -60 -45 -60
-26 0 14 60 61 78 61 11 0 6 -10 -18 -35z m184 6 c15 -16 23 -31 18 -35 -5 -3
-24 10 -42 29 -22 23 -29 35 -19 35 8 0 28 -13 43 -29z m51 4 c20 -16 25 -24
14 -25 -8 0 -26 11 -39 25 -30 32 -14 32 25 0z m-757 -274 c-5 -41 -67 -40
-68 1 0 16 31 36 50 31 16 -4 20 -12 18 -32z m1230 -13 c3 -25 0 -28 -27 -28
-31 0 -41 13 -33 43 3 13 12 17 31 15 20 -2 27 -9 29 -30z m-598 -98 c0 -39
-1 -40 -35 -40 -34 0 -35 1 -35 40 0 39 1 40 35 40 34 0 35 -1 35 -40z m0
-115 c0 -45 0 -45 -35 -45 -35 0 -35 0 -35 45 0 45 0 45 35 45 35 0 35 0 35
-45z m0 -120 c0 -45 0 -45 -35 -45 -35 0 -35 0 -35 45 0 45 0 45 35 45 35 0
35 0 35 -45z m0 -117 l0 -48 -35 0 -35 0 0 48 0 49 35 -1 c35 -1 35 -1 35 -48z
m0 -113 c0 -45 0 -45 -35 -45 -35 0 -35 0 -35 45 0 45 0 45 35 45 35 0 35 0
35 -45z m0 -120 c0 -45 0 -45 -35 -45 -35 0 -35 0 -35 45 0 45 0 45 35 45 35
0 35 0 35 -45z m0 -120 c0 -45 0 -45 -35 -45 l-35 0 2 45 c1 44 2 45 35 45 33
0 33 -1 33 -45z m216 -985 l2443 0 -115 -235 c-63 -130 -114 -238 -114 -240 0
-3 45 -5 100 -5 55 0 100 -2 100 -5 0 -3 -62 -99 -138 -213 -76 -114 -142
-213 -146 -221 -7 -11 7 -13 77 -10 l85 4 -81 -85 c-45 -47 -185 -194 -311
-328 -126 -133 -230 -242 -232 -242 -2 0 6 24 17 53 24 59 49 128 49 133 0 2
-894 4 -1986 4 l-1985 0 7 -22 c4 -13 22 -59 40 -103 19 -44 34 -80 34 -81 0
-3 -497 510 -576 595 l-71 76 78 -3 c44 -2 79 -1 79 2 0 4 -65 104 -145 224
l-145 217 106 3 c103 3 105 3 98 25 -4 12 -56 120 -115 239 -60 120 -109 221
-109 225 0 3 115 3 257 0 141 -4 1355 -7 2699 -7z m-3236 -1696 c107 -32 176
-98 205 -197 23 -79 25 -77 -69 -77 l-84 0 -6 34 c-13 70 -75 116 -156 116
-115 0 -166 -70 -177 -245 -7 -109 10 -222 41 -267 27 -42 79 -68 133 -68 83
0 137 38 155 107 l10 43 85 0 86 0 -7 -41 c-8 -53 -46 -127 -83 -161 -15 -15
-55 -39 -88 -55 -52 -24 -72 -28 -155 -28 -88 0 -101 3 -163 33 -122 60 -176
161 -185 349 -5 120 7 208 38 280 22 50 92 128 134 150 85 44 193 55 286 27z
m4593 -18 c70 -34 138 -108 169 -184 20 -51 23 -74 23 -212 0 -140 -2 -161
-24 -215 -37 -90 -117 -167 -205 -194 -85 -26 -146 -27 -229 -1 -176 55 -272
253 -239 496 23 174 112 291 252 331 70 20 186 10 253 -21z m1607 7 c25 -11
60 -33 79 -49 38 -32 81 -115 81 -156 l0 -28 -85 0 c-70 0 -85 3 -85 15 0 30
-31 75 -62 91 -22 12 -49 15 -94 12 -80 -5 -114 -32 -114 -89 0 -45 34 -78
107 -105 174 -63 204 -78 248 -116 58 -51 85 -106 85 -173 0 -92 -50 -164
-145 -207 -66 -30 -223 -33 -302 -5 -104 36 -174 112 -189 205 l-7 42 87 0
c75 0 86 -2 86 -17 0 -29 37 -81 69 -98 39 -20 143 -20 181 0 48 25 62 68 38
120 -13 29 -71 62 -158 90 -128 41 -217 101 -250 166 -22 43 -27 130 -9 176
22 60 103 122 186 143 61 15 202 6 253 -17z m-5690 -153 l0 -170 168 2 167 3
2 165 2 165 85 3 86 3 -2 -418 -3 -418 -83 0 -83 0 -2 175 -2 175 -167 3 -168
2 0 -180 0 -180 -85 0 -85 0 0 420 0 420 85 0 85 0 0 -170z m1075 153 c22 -57
305 -815 305 -819 0 -2 -40 -4 -89 -4 l-89 0 -26 78 c-15 42 -30 83 -34 90 -7
9 -45 12 -157 10 l-148 -3 -30 -87 -29 -88 -89 0 c-49 0 -89 2 -89 4 0 2 68
185 150 407 83 222 152 410 155 417 3 8 29 12 84 12 66 0 80 -3 86 -17z m714
-275 c57 -161 106 -296 110 -300 4 -4 54 126 111 290 l105 297 113 3 112 3 0
-421 0 -420 -87 0 -86 0 7 268 c4 147 9 285 13 307 11 74 -12 23 -101 -225
-49 -135 -97 -269 -108 -297 l-19 -53 -59 0 c-50 0 -60 3 -65 20 -3 11 -53
149 -110 307 l-104 288 6 -307 6 -308 -86 0 -87 0 0 420 0 420 113 0 113 0
103 -292z m1119 281 c76 -16 151 -66 186 -123 24 -39 31 -63 34 -118 8 -129
-33 -205 -136 -254 -51 -25 -72 -28 -192 -33 l-135 -6 0 -145 0 -145 -85 0
-85 0 -3 418 -2 417 184 0 c102 0 207 -5 234 -11z m530 -406 l-3 -418 -83 0
-82 0 0 413 c0 226 0 414 0 417 0 3 38 5 85 5 l85 0 -2 -417z m1312 144 l165
-272 3 273 2 272 85 0 85 0 0 -420 0 -421 -86 3 -86 3 -162 267 c-88 147 -164
267 -168 268 -5 0 -8 -121 -8 -270 l0 -270 -85 0 -85 0 0 420 0 420 88 0 87
-1 165 -272z m-2973 -1034 l175 -229 44 6 43 7 102 -131 c57 -72 104 -133 105
-134 1 -2 19 2 38 9 40 14 32 20 117 -85 16 -19 18 -19 42 -3 l26 17 72 -85
c40 -47 74 -85 75 -85 2 0 53 65 114 145 107 140 112 145 148 145 34 1 40 6
85 70 l47 69 53 -5 52 -5 81 123 c79 120 82 123 137 143 52 19 61 27 146 138
l90 119 470 1 c259 1 471 1 471 -1 0 -2 -90 -121 -199 -266 l-199 -262 -109
-42 -108 -42 -162 -244 -161 -243 -64 8 c-34 5 -77 10 -95 13 -32 5 -35 1
-124 -128 l-93 -134 -69 2 -70 1 -226 -297 c-124 -164 -229 -298 -232 -298 -4
0 -73 79 -154 174 l-148 175 -49 -25 c-27 -14 -53 -24 -58 -22 -4 2 -47 50
-95 108 -48 58 -88 106 -90 108 -1 2 -33 -9 -69 -24 -65 -26 -68 -26 -81 -8
-71 98 -394 499 -401 497 -5 0 -43 -4 -85 -8 l-75 -7 -364 474 c-200 260 -367
478 -371 483 -5 7 169 9 518 8 l525 -1 175 -229z"/>
<path d="M8028 5103 c-73 -107 -70 -102 -50 -98 43 9 263 13 260 5 -2 -5 -104
-116 -228 -246 -124 -131 -256 -271 -294 -311 l-69 -73 236 0 235 0 40 73 c86
157 227 494 247 592 3 17 -14 -24 -38 -90 -86 -234 -232 -550 -260 -561 -7 -2
-107 -3 -222 -2 l-210 3 288 304 c158 167 286 308 284 315 -3 8 -42 10 -130 7
-70 -2 -127 0 -127 3 0 4 23 40 50 81 28 41 48 75 46 75 -3 0 -29 -35 -58 -77z"/>
<path d="M2195 5150 c5 -8 26 -41 47 -73 22 -31 36 -61 33 -67 -3 -5 -55 -7
-115 -6 -61 2 -110 -1 -110 -5 0 -5 59 -9 130 -9 l131 0 -52 78 c-49 73 -83
116 -64 82z"/>
<path d="M8416 5114 c-4 -14 -5 -28 -3 -31 3 -2 8 8 11 23 4 14 5 28 3 31 -3
2 -8 -8 -11 -23z"/>
<path d="M1901 5103 c-1 -19 67 -217 116 -337 24 -60 75 -171 114 -248 l70
-138 212 0 211 0 -120 123 c-361 370 -475 486 -472 478 2 -5 128 -139 281
-297 l279 -289 -183 -3 c-101 -1 -189 0 -195 2 -30 12 -178 337 -260 571 -29
83 -53 144 -53 138z"/>
<path d="M3000 5528 c0 -7 43 -123 94 -258 l94 -245 -99 -3 c-54 -1 -99 -6
-99 -10 0 -5 38 -90 85 -190 47 -99 85 -182 85 -184 0 -2 -33 -1 -73 2 l-74 5
41 -100 41 -100 2043 -3 2042 -2 45 90 c25 49 45 94 45 100 0 6 -31 10 -75 10
-41 0 -75 2 -75 3 0 2 38 86 85 186 47 100 85 184 85 186 0 3 -45 5 -100 5
-55 0 -100 2 -100 4 0 2 43 116 95 252 52 137 95 252 95 256 0 4 -963 8 -2140
8 -1705 0 -2140 -3 -2140 -12z m1023 -249 l-1 -100 -214 -2 -213 -2 0 -60 0
-60 213 0 212 0 0 -242 0 -243 -340 0 -340 0 0 95 0 95 220 0 220 0 0 65 0 66
-220 -3 -219 -3 -3 248 -3 247 345 0 345 0 -2 -101z m481 -31 c50 -70 93 -127
96 -127 3 0 44 57 91 127 l85 127 121 3 121 3 -2 -406 -1 -405 -128 0 -129 0
4 130 c2 72 1 130 -2 130 -3 0 -41 -47 -84 -105 -43 -58 -82 -103 -87 -99 -5
3 -6 -2 -3 -10 13 -35 -8 -10 -92 107 l-89 122 -3 -137 -3 -138 -129 0 -130 0
0 405 0 406 137 -3 137 -3 90 -127z m876 -273 l0 -405 -120 0 -120 0 0 405 0
405 120 0 120 0 0 -405z m775 308 l0 -98 -90 -5 -90 -5 -3 -302 -2 -303 -135
0 -135 0 0 305 0 305 -105 0 -105 0 0 100 0 100 333 0 332 0 0 -97z m785 -8
l0 -105 -209 0 -209 0 -4 -67 -3 -68 213 3 212 3 0 -76 0 -75 -210 0 -210 0 0
-65 0 -65 210 0 210 0 0 -95 0 -95 -335 0 -335 0 0 405 0 405 335 0 335 0 0
-105z"/>
<path d="M6535 3846 c-48 -21 -92 -78 -105 -138 -7 -32 -11 -100 -8 -168 3
-93 8 -123 26 -156 80 -153 266 -132 316 36 21 70 21 229 1 298 -34 115 -134
170 -230 128z"/>
<path d="M3607 3627 c-26 -78 -47 -148 -47 -155 0 -9 28 -12 101 -12 81 0 100
3 97 14 -9 42 -94 296 -98 296 -3 0 -27 -64 -53 -143z"/>
<path d="M5339 3848 c-1 -2 -2 -61 -3 -131 l-2 -129 118 4 c112 3 119 4 144
30 35 34 44 110 20 157 -29 56 -68 71 -178 71 -54 0 -99 -1 -99 -2z"/>
</g>
</svg>
